<svg width="275" height="151" viewBox="0 0 275 151" fill="none" xmlns="http://www.w3.org/2000/svg">
<path d="M13.728 97.768C11.744 97.768 10.176 97.224 9.024 96.136C7.936 94.984 7.392 93.352 7.392 91.24V35.848C7.392 33.736 7.936 32.136 9.024 31.048C10.176 29.896 11.808 29.32 13.92 29.32H47.424C49.088 29.32 50.336 29.736 51.168 30.568C52 31.4 52.416 32.584 52.416 34.12C52.416 35.72 52 36.968 51.168 37.864C50.336 38.696 49.088 39.112 47.424 39.112H19.68V58.216H45.408C47.008 58.216 48.224 58.632 49.056 59.464C49.952 60.296 50.4 61.48 50.4 63.016C50.4 64.616 49.952 65.864 49.056 66.76C48.224 67.592 47.008 68.008 45.408 68.008H19.68V91.24C19.68 95.592 17.696 97.768 13.728 97.768ZM67.8263 97C65.7143 97 64.0823 96.456 62.9303 95.368C61.8423 94.216 61.2983 92.584 61.2983 90.472V35.848C61.2983 33.736 61.8423 32.136 62.9303 31.048C64.0823 29.896 65.7143 29.32 67.8263 29.32H102.098C103.698 29.32 104.914 29.736 105.746 30.568C106.642 31.4 107.09 32.584 107.09 34.12C107.09 35.72 106.642 36.968 105.746 37.864C104.914 38.696 103.698 39.112 102.098 39.112H73.1063V57.736H99.9863C101.65 57.736 102.898 58.152 103.73 58.984C104.562 59.816 104.978 61.032 104.978 62.632C104.978 64.232 104.562 65.448 103.73 66.28C102.898 67.112 101.65 67.528 99.9863 67.528H73.1063V87.208H102.098C103.698 87.208 104.914 87.624 105.746 88.456C106.642 89.288 107.09 90.504 107.09 92.104C107.09 93.704 106.642 94.92 105.746 95.752C104.914 96.584 103.698 97 102.098 97H67.8263ZM124.724 97.768C122.74 97.768 121.204 97.224 120.116 96.136C119.092 94.984 118.58 93.416 118.58 91.432V34.888C118.58 32.84 119.092 31.272 120.116 30.184C121.204 29.096 122.74 28.552 124.724 28.552C126.708 28.552 128.212 29.096 129.236 30.184C130.324 31.272 130.868 32.84 130.868 34.888V91.432C130.868 93.416 130.356 94.984 129.332 96.136C128.308 97.224 126.772 97.768 124.724 97.768ZM151.817 97.768C149.833 97.768 148.297 97.224 147.209 96.136C146.185 94.984 145.673 93.416 145.673 91.432V35.56C145.673 33.512 146.217 31.976 147.305 30.952C148.393 29.864 149.929 29.32 151.913 29.32H175.049C182.473 29.32 188.201 31.112 192.233 34.696C196.265 38.216 198.281 43.176 198.281 49.576C198.281 53.736 197.353 57.32 195.497 60.328C193.705 63.336 191.081 65.64 187.625 67.24C184.169 68.84 179.977 69.64 175.049 69.64L175.913 68.2H179.081C181.705 68.2 183.977 68.84 185.897 70.12C187.881 71.4 189.609 73.416 191.081 76.168L198.281 89.512C199.049 90.856 199.401 92.168 199.337 93.448C199.273 94.728 198.793 95.784 197.897 96.616C197.001 97.384 195.689 97.768 193.961 97.768C192.233 97.768 190.825 97.416 189.737 96.712C188.649 95.944 187.689 94.792 186.857 93.256L177.161 75.4C176.009 73.224 174.633 71.784 173.033 71.08C171.497 70.312 169.513 69.928 167.081 69.928H157.961V91.432C157.961 93.416 157.449 94.984 156.425 96.136C155.401 97.224 153.865 97.768 151.817 97.768ZM157.961 60.808H172.937C177.353 60.808 180.681 59.912 182.921 58.12C185.225 56.264 186.377 53.512 186.377 49.864C186.377 46.28 185.225 43.592 182.921 41.8C180.681 39.944 177.353 39.016 172.937 39.016H157.961V60.808ZM210.939 97.768C209.403 97.768 208.155 97.416 207.195 96.712C206.299 96.008 205.755 95.08 205.563 93.928C205.371 92.712 205.595 91.368 206.235 89.896L231.579 33.736C232.411 31.88 233.403 30.568 234.555 29.8C235.771 28.968 237.147 28.552 238.683 28.552C240.155 28.552 241.467 28.968 242.619 29.8C243.835 30.568 244.859 31.88 245.691 33.736L271.131 89.896C271.835 91.368 272.091 92.712 271.899 93.928C271.707 95.144 271.163 96.104 270.267 96.808C269.371 97.448 268.187 97.768 266.715 97.768C264.923 97.768 263.515 97.352 262.491 96.52C261.531 95.624 260.667 94.28 259.899 92.488L253.659 77.992L258.843 81.352H218.331L223.515 77.992L217.371 92.488C216.539 94.344 215.675 95.688 214.779 96.52C213.883 97.352 212.603 97.768 210.939 97.768ZM238.491 42.664L225.051 74.632L222.555 71.56H254.619L252.219 74.632L238.683 42.664H238.491Z" fill="#3a3a3a"/>
<path d="M36.24 114.331C38.288 114.331 40.064 114.731 41.568 115.531C43.104 116.299 44.288 117.483 45.12 119.083C45.984 120.683 46.416 122.699 46.416 125.131V139.771H43.008V125.467C43.008 122.811 42.368 120.811 41.088 119.467C39.84 118.091 38.064 117.403 35.76 117.403C34.032 117.403 32.528 117.771 31.248 118.507C30 119.211 29.024 120.251 28.32 121.627C27.648 122.971 27.312 124.603 27.312 126.523V139.771H23.904V125.467C23.904 122.811 23.264 120.811 21.984 119.467C20.704 118.091 18.912 117.403 16.608 117.403C14.912 117.403 13.424 117.771 12.144 118.507C10.864 119.211 9.872 120.251 9.168 121.627C8.496 122.971 8.16 124.603 8.16 126.523V139.771H4.752V114.571H8.016V121.387L7.488 120.187C8.256 118.363 9.488 116.939 11.184 115.915C12.912 114.859 14.944 114.331 17.28 114.331C19.744 114.331 21.84 114.955 23.568 116.203C25.296 117.419 26.416 119.259 26.928 121.723L25.584 121.195C26.32 119.147 27.616 117.499 29.472 116.251C31.36 114.971 33.616 114.331 36.24 114.331ZM55.6583 139.771V114.571H59.0663V139.771H55.6583ZM57.3863 109.003C56.6823 109.003 56.0903 108.763 55.6103 108.283C55.1303 107.803 54.8903 107.227 54.8903 106.555C54.8903 105.883 55.1303 105.323 55.6103 104.875C56.0903 104.395 56.6823 104.155 57.3863 104.155C58.0903 104.155 58.6823 104.379 59.1623 104.827C59.6423 105.275 59.8823 105.835 59.8823 106.507C59.8823 107.211 59.6423 107.803 59.1623 108.283C58.7143 108.763 58.1223 109.003 57.3863 109.003ZM75.3169 140.011C73.2369 140.011 71.2689 139.723 69.4129 139.147C67.5569 138.539 66.1009 137.787 65.0449 136.891L66.5809 134.203C67.6049 134.971 68.9169 135.643 70.5169 136.219C72.1169 136.763 73.7969 137.035 75.5569 137.035C77.9569 137.035 79.6849 136.667 80.7409 135.931C81.7969 135.163 82.3249 134.155 82.3249 132.907C82.3249 131.979 82.0209 131.259 81.4129 130.747C80.8369 130.203 80.0689 129.803 79.1089 129.547C78.1489 129.259 77.0769 129.019 75.8929 128.827C74.7089 128.635 73.5249 128.411 72.3409 128.155C71.1889 127.899 70.1329 127.531 69.1729 127.051C68.2129 126.539 67.4289 125.851 66.8209 124.987C66.2449 124.123 65.9569 122.971 65.9569 121.531C65.9569 120.155 66.3409 118.923 67.1089 117.835C67.8769 116.747 68.9969 115.899 70.4689 115.291C71.9729 114.651 73.7969 114.331 75.9409 114.331C77.5729 114.331 79.2049 114.555 80.8369 115.003C82.4689 115.419 83.8129 115.979 84.8689 116.683L83.3809 119.419C82.2609 118.651 81.0609 118.107 79.7809 117.787C78.5009 117.435 77.2209 117.259 75.9409 117.259C73.6689 117.259 71.9889 117.659 70.9009 118.459C69.8449 119.227 69.3169 120.219 69.3169 121.435C69.3169 122.395 69.6049 123.147 70.1809 123.691C70.7889 124.235 71.5729 124.667 72.5329 124.987C73.5249 125.275 74.5969 125.515 75.7489 125.707C76.9329 125.899 78.1009 126.139 79.2529 126.427C80.4369 126.683 81.5089 127.051 82.4689 127.531C83.4609 127.979 84.2449 128.635 84.8209 129.499C85.4289 130.331 85.7329 131.435 85.7329 132.811C85.7329 134.283 85.3169 135.563 84.4849 136.651C83.6849 137.707 82.5009 138.539 80.9329 139.147C79.3969 139.723 77.5249 140.011 75.3169 140.011ZM98.7544 140.011C96.6744 140.011 94.7064 139.723 92.8504 139.147C90.9944 138.539 89.5384 137.787 88.4824 136.891L90.0184 134.203C91.0424 134.971 92.3544 135.643 93.9544 136.219C95.5544 136.763 97.2344 137.035 98.9944 137.035C101.394 137.035 103.122 136.667 104.178 135.931C105.234 135.163 105.762 134.155 105.762 132.907C105.762 131.979 105.458 131.259 104.85 130.747C104.274 130.203 103.506 129.803 102.546 129.547C101.586 129.259 100.514 129.019 99.3304 128.827C98.1464 128.635 96.9624 128.411 95.7784 128.155C94.6264 127.899 93.5704 127.531 92.6104 127.051C91.6504 126.539 90.8664 125.851 90.2584 124.987C89.6824 124.123 89.3944 122.971 89.3944 121.531C89.3944 120.155 89.7784 118.923 90.5464 117.835C91.3144 116.747 92.4344 115.899 93.9064 115.291C95.4104 114.651 97.2344 114.331 99.3784 114.331C101.01 114.331 102.642 114.555 104.274 115.003C105.906 115.419 107.25 115.979 108.306 116.683L106.818 119.419C105.698 118.651 104.498 118.107 103.218 117.787C101.938 117.435 100.658 117.259 99.3784 117.259C97.1064 117.259 95.4264 117.659 94.3384 118.459C93.2824 119.227 92.7544 120.219 92.7544 121.435C92.7544 122.395 93.0424 123.147 93.6184 123.691C94.2264 124.235 95.0104 124.667 95.9704 124.987C96.9624 125.275 98.0344 125.515 99.1864 125.707C100.37 125.899 101.538 126.139 102.69 126.427C103.874 126.683 104.946 127.051 105.906 127.531C106.898 127.979 107.682 128.635 108.258 129.499C108.866 130.331 109.17 131.435 109.17 132.811C109.17 134.283 108.754 135.563 107.922 136.651C107.122 137.707 105.938 138.539 104.37 139.147C102.834 139.723 100.962 140.011 98.7544 140.011ZM115.424 139.771V114.571H118.832V139.771H115.424ZM117.152 109.003C116.448 109.003 115.856 108.763 115.376 108.283C114.896 107.803 114.656 107.227 114.656 106.555C114.656 105.883 114.896 105.323 115.376 104.875C115.856 104.395 116.448 104.155 117.152 104.155C117.856 104.155 118.448 104.379 118.928 104.827C119.408 105.275 119.648 105.835 119.648 106.507C119.648 107.211 119.408 107.803 118.928 108.283C118.48 108.763 117.888 109.003 117.152 109.003ZM138.587 140.011C136.155 140.011 133.963 139.467 132.011 138.379C130.091 137.259 128.571 135.739 127.451 133.819C126.331 131.867 125.771 129.643 125.771 127.147C125.771 124.619 126.331 122.395 127.451 120.475C128.571 118.555 130.091 117.051 132.011 115.963C133.931 114.875 136.123 114.331 138.587 114.331C141.083 114.331 143.291 114.875 145.211 115.963C147.163 117.051 148.683 118.555 149.771 120.475C150.891 122.395 151.451 124.619 151.451 127.147C151.451 129.643 150.891 131.867 149.771 133.819C148.683 135.739 147.163 137.259 145.211 138.379C143.259 139.467 141.051 140.011 138.587 140.011ZM138.587 136.987C140.411 136.987 142.027 136.587 143.435 135.787C144.843 134.955 145.947 133.803 146.747 132.331C147.579 130.827 147.995 129.099 147.995 127.147C147.995 125.163 147.579 123.435 146.747 121.963C145.947 120.491 144.843 119.355 143.435 118.555C142.027 117.723 140.427 117.307 138.635 117.307C136.843 117.307 135.243 117.723 133.835 118.555C132.427 119.355 131.307 120.491 130.475 121.963C129.643 123.435 129.227 125.163 129.227 127.147C129.227 129.099 129.643 130.827 130.475 132.331C131.307 133.803 132.427 134.955 133.835 135.787C135.243 136.587 136.827 136.987 138.587 136.987ZM171.272 114.331C173.32 114.331 175.112 114.731 176.648 115.531C178.216 116.299 179.432 117.483 180.296 119.083C181.192 120.683 181.64 122.699 181.64 125.131V139.771H178.232V125.467C178.232 122.811 177.56 120.811 176.216 119.467C174.904 118.091 173.048 117.403 170.648 117.403C168.856 117.403 167.288 117.771 165.944 118.507C164.632 119.211 163.608 120.251 162.872 121.627C162.168 122.971 161.816 124.603 161.816 126.523V139.771H158.408V114.571H161.672V121.483L161.144 120.187C161.944 118.363 163.224 116.939 164.984 115.915C166.744 114.859 168.84 114.331 171.272 114.331ZM206.638 139.771V134.203L206.494 133.291V123.979C206.494 121.835 205.886 120.187 204.67 119.035C203.486 117.883 201.71 117.307 199.342 117.307C197.71 117.307 196.158 117.579 194.686 118.123C193.214 118.667 191.966 119.387 190.942 120.283L189.406 117.739C190.686 116.651 192.222 115.819 194.014 115.243C195.806 114.635 197.694 114.331 199.678 114.331C202.942 114.331 205.454 115.147 207.214 116.779C209.006 118.379 209.902 120.827 209.902 124.123V139.771H206.638ZM197.95 140.011C196.062 140.011 194.414 139.707 193.006 139.099C191.63 138.459 190.574 137.595 189.838 136.507C189.102 135.387 188.734 134.107 188.734 132.667C188.734 131.355 189.038 130.171 189.646 129.115C190.286 128.027 191.31 127.163 192.718 126.523C194.158 125.851 196.078 125.515 198.478 125.515H207.166V128.059H198.574C196.142 128.059 194.446 128.491 193.486 129.355C192.558 130.219 192.094 131.291 192.094 132.571C192.094 134.011 192.654 135.163 193.774 136.027C194.894 136.891 196.462 137.323 198.478 137.323C200.398 137.323 202.046 136.891 203.422 136.027C204.83 135.131 205.854 133.851 206.494 132.187L207.262 134.539C206.622 136.203 205.502 137.531 203.902 138.523C202.334 139.515 200.35 140.011 197.95 140.011ZM196.654 110.635L203.23 104.683H207.79L200.014 110.635H196.654ZM219.158 139.771V114.571H222.422V121.435L222.086 120.235C222.79 118.315 223.974 116.859 225.638 115.867C227.302 114.843 229.366 114.331 231.83 114.331V117.643C231.702 117.643 231.574 117.643 231.446 117.643C231.318 117.611 231.19 117.595 231.062 117.595C228.406 117.595 226.326 118.411 224.822 120.043C223.318 121.643 222.566 123.931 222.566 126.907V139.771H219.158ZM238.049 139.771V114.571H241.457V139.771H238.049ZM239.777 109.003C239.073 109.003 238.481 108.763 238.001 108.283C237.521 107.803 237.281 107.227 237.281 106.555C237.281 105.883 237.521 105.323 238.001 104.875C238.481 104.395 239.073 104.155 239.777 104.155C240.481 104.155 241.073 104.379 241.553 104.827C242.033 105.275 242.273 105.835 242.273 106.507C242.273 107.211 242.033 107.803 241.553 108.283C241.105 108.763 240.513 109.003 239.777 109.003ZM266.732 139.771V134.203L266.588 133.291V123.979C266.588 121.835 265.98 120.187 264.764 119.035C263.58 117.883 261.804 117.307 259.436 117.307C257.804 117.307 256.252 117.579 254.78 118.123C253.308 118.667 252.06 119.387 251.036 120.283L249.5 117.739C250.78 116.651 252.316 115.819 254.108 115.243C255.9 114.635 257.788 114.331 259.772 114.331C263.036 114.331 265.548 115.147 267.308 116.779C269.1 118.379 269.996 120.827 269.996 124.123V139.771H266.732ZM258.044 140.011C256.156 140.011 254.508 139.707 253.1 139.099C251.724 138.459 250.668 137.595 249.932 136.507C249.196 135.387 248.828 134.107 248.828 132.667C248.828 131.355 249.132 130.171 249.74 129.115C250.38 128.027 251.404 127.163 252.812 126.523C254.252 125.851 256.172 125.515 258.572 125.515H267.26V128.059H258.668C256.236 128.059 254.54 128.491 253.58 129.355C252.652 130.219 252.188 131.291 252.188 132.571C252.188 134.011 252.748 135.163 253.868 136.027C254.988 136.891 256.556 137.323 258.572 137.323C260.492 137.323 262.14 136.891 263.516 136.027C264.924 135.131 265.948 133.851 266.588 132.187L267.356 134.539C266.716 136.203 265.596 137.531 263.996 138.523C262.428 139.515 260.444 140.011 258.044 140.011Z" fill="black"/>
</svg>
